<?xml version="1.0" encoding="UTF-8"?>
<svg width="200" height="200" version="1.1" viewBox="0 0 200 200" xmlns="http://www.w3.org/2000/svg">
 <rect width="200" height="200" fill="#f0f0f0"/>
 <g transform="matrix(1.3333 0 0 -1.3333 0 200)">
  <path d="m75 75c0-13.807-11.193-25-25-25s-25 11.193-25 25 11.193 25 25 25 25-11.193 25-25zm-25 33.333c-18.409 0-33.333-14.924-33.333-33.333s14.924-33.333 33.333-33.333 33.333 14.924 33.333 33.333-14.924 33.333-33.333 33.333z" fill="#999"/>
  <path d="m116.67 83.333h-33.333c-2.303 0-4.167-1.864-4.167-4.167s1.864-4.167 4.167-4.167h33.333c2.303 0 4.167 1.864 4.167 4.167s-1.864 4.167-4.167 4.167z" fill="#999"/>
 </g>
</svg>
